<svg xmlns="http://www.w3.org/2000/svg" xmlns:xlink="http://www.w3.org/1999/xlink" version="1.1" x="0px" y="0px" viewBox="0 0 200 200" style="enable-background:new 0 0 200 200;" xml:space="preserve"><g stroke="#0F0F0F" stroke-width="6" stroke-linejoin="round" fill="#0F0F0F"><path d="M196.8,97.3c0-0.1-0.1-0.1-0.1-0.1c-0.1-0.1-0.1-0.2-0.2-0.2c0,0-0.1,0-0.1-0.1c-0.1-0.1-0.1-0.1-0.2-0.2L180,87V64.4   l16.2-7.8c0.1,0,0.1-0.1,0.1-0.1c0.1-0.1,0.2-0.1,0.2-0.2c0.1-0.1,0.1-0.1,0.1-0.2c0-0.1,0.1-0.1,0.1-0.2c0-0.1,0-0.2,0.1-0.3   c0-0.1,0-0.1,0-0.2v-12c0-0.1,0-0.1,0-0.2c0-0.1,0-0.1,0-0.2v-0.1l-0.1-0.1c0-0.1-0.1-0.1-0.1-0.2l-0.1-0.1l-0.1-0.1l-0.1-0.1   l-26.8-15.7c-0.6-0.3-1.4-0.1-1.7,0.4c-0.3,0.6-0.1,1.4,0.4,1.7L193,43.4L46,113.1L8.1,91l147.1-69.8l4.5,2.7   c0.2,0.1,0.4,0.2,0.6,0.2c0.4,0,0.8-0.2,1.1-0.6c0.4-0.6,0.2-1.4-0.4-1.7l-5.1-3h-0.1c-0.1,0-0.2-0.1-0.2-0.1c-0.1,0-0.1,0-0.2,0   s-0.2,0-0.2,0c-0.1,0-0.2,0-0.2,0.1h-0.1l-150,71l-0.1,0.1c-0.1,0-0.1,0.1-0.2,0.1c0,0-0.1,0-0.1,0.1l-0.1,0.1l-0.1,0.1   c0,0,0,0,0,0.1c0,0,0,0.1-0.1,0.1c0,0.1,0,0.1,0,0.2s0,0.1,0,0.2c0,0,0,0,0,0.1v12c0,0,0,0,0,0.1c-0.1,0.5,0.2,1,0.6,1.2l14.1,8.2   v25.2l-14,6.9c0,0-0.1,0-0.1,0.1c-0.1,0-0.1,0.1-0.2,0.1l-0.1,0.1L4.4,145l-0.1,0.1c0,0,0,0,0,0.1c0,0,0,0.1-0.1,0.1   c0,0.1,0,0.1,0,0.2c0,0.1,0,0.1,0,0.2c0,0,0,0,0,0.1v12c-0.1,0.5,0.2,1,0.6,1.2l40.6,23.5c0.1,0,0.1,0.1,0.2,0.1h0.1   c0.1,0,0.2,0,0.3,0s0.2,0,0.3,0h0.1c0.1,0,0.1,0,0.2-0.1l149.7-71.6c0.1,0,0.1-0.1,0.1-0.1c0.1-0.1,0.2-0.1,0.2-0.2   c0.1-0.1,0.1-0.1,0.1-0.2s0.1-0.1,0.1-0.2s0-0.2,0.1-0.3c0-0.1,0-0.1,0-0.2v-12c0-0.1,0-0.2,0-0.2   C196.9,97.4,196.9,97.3,196.8,97.3z M47.2,115.3l147.2-69.8v9.2L47.2,124.8V115.3z M18.9,140.4v11.5l-10.8-6.2L18.9,140.4z    M44.8,179.2L6.6,157.1v-9.3l12.8,7.4h0.1h0.1c0.1,0.1,0.3,0.1,0.4,0.1s0.3,0,0.4-0.1h0.1c0.1-0.1,0.2-0.1,0.4-0.2   c0.1-0.1,0.1-0.2,0.2-0.2c0,0,0,0,0-0.1s0.1-0.2,0.1-0.2c0-0.1,0-0.2,0-0.2s0,0,0-0.1v-42.4c0-0.1,0-0.1,0-0.1c0-0.1,0-0.2-0.1-0.3   c0-0.1-0.1-0.1-0.1-0.2s-0.1-0.1-0.1-0.2c-0.1-0.1-0.1-0.1-0.2-0.2l-0.1-0.1l-14.1-8.2v-9.3l38.1,22.1v9.4l-14.2-8.5   c-0.1-0.1-0.2-0.1-0.3-0.1c-0.1,0-0.2,0-0.2,0h-0.1c-0.1,0-0.1,0-0.1,0c-0.1,0-0.2,0-0.3,0.1c-0.1,0-0.1,0.1-0.2,0.1   s-0.1,0.1-0.2,0.1c-0.1,0.1-0.1,0.1-0.2,0.2l-0.1,0.1c0,0,0,0,0,0.1s-0.1,0.2-0.1,0.2c0,0.1,0,0.2,0,0.2s0,0,0,0.1v42.5   c0,0.1,0,0.1,0,0.2c0,0.1,0,0.2,0.1,0.3c0,0.1,0.1,0.1,0.1,0.2c0,0.1,0.1,0.1,0.1,0.2c0.1,0.1,0.1,0.1,0.2,0.2l0.1,0.1l15.6,9   C44.8,170,44.8,179.2,44.8,179.2z M46,167.7l-14.1-8.2l19.2-9.7c0.6-0.3,0.9-1.1,0.5-1.7c-0.3-0.6-1.1-0.9-1.7-0.5L31,157.2v-37.7   l14.3,8.4c0.1,0,0.1,0.1,0.2,0.1h0.1c0.1,0,0.2,0,0.3,0s0.2,0,0.3,0h0.1c0.1,0,0.1,0,0.2-0.1l130.9-62.4v21.4h0.1l-107,50.7   c-0.6,0.3-0.9,1-0.6,1.7c0.2,0.5,0.7,0.7,1.1,0.7c0.2,0,0.4,0,0.5-0.1l107.1-50.7l14.4,8.5L46,167.7z M47.2,179.3v-9.4l147.2-70.2   v9.2h0.1L47.2,179.3z"/><path d="M64.8,140.3l-0.9,0.5c-0.6,0.3-0.8,1.1-0.5,1.7c0.2,0.4,0.7,0.7,1.1,0.7c0.2,0,0.4-0.1,0.6-0.2l0.9-0.5   c0.6-0.3,0.8-1.1,0.5-1.7S65.4,140,64.8,140.3z"/><path d="M59.4,142.9l-4,2c-0.6,0.3-0.9,1.1-0.6,1.7c0.2,0.5,0.6,0.7,1.1,0.7c0.2,0,0.4,0,0.6-0.1l4-2c0.6-0.3,0.9-1.1,0.6-1.7   C60.8,142.9,60,142.6,59.4,142.9z"/><path d="M163.7,26.2l0.7,0.4c0.2,0.1,0.4,0.2,0.6,0.2c0.4,0,0.9-0.2,1.1-0.6c0.3-0.6,0.1-1.4-0.5-1.7l-0.7-0.4   c-0.6-0.3-1.4-0.1-1.7,0.5C162.9,25.1,163.1,25.8,163.7,26.2z"/></g></svg>