<svg xmlns="http://www.w3.org/2000/svg" version="1.1" viewBox="-5.0 -5.0 110.0 110.0">
 <path d="m90.23 46.355-36.074-36.074c-1.1016-1.1016-2.5977-1.7188-4.1562-1.7188s-3.0547 0.61719-4.1562 1.7188l-36.07 36.074c-1.3789 1.375-1.7891 3.4453-1.0469 5.2461 0.74609 1.7969 2.5 2.9688 4.4492 2.9688h3.9023v32.281c0.003906 2.3672 1.9219 4.2852 4.2891 4.2891h57.266c2.3672-0.003906 4.2852-1.9219 4.2852-4.2891v-32.281h3.9062c1.9492 0 3.7031-1.1719 4.4492-2.9688 0.74219-1.8008 0.33203-3.8711-1.043-5.2461zm-47.082 41.004v-21.824c0-0.33203 0.26953-0.59766 0.59766-0.60156h12.508c0.32812 0.003906 0.59766 0.26953 0.59766 0.60156v21.824zm44.629-37.207c-0.15234 0.39453-0.53125 0.64844-0.95312 0.63672h-4.0273c-2.0195 0.003907-3.6562 1.6406-3.6602 3.6602v32.402c0 0.28125-0.22656 0.50781-0.50391 0.50781h-18v-21.824c-0.003906-2.418-1.9609-4.3789-4.3789-4.3828h-12.508c-2.418 0.003906-4.375 1.9648-4.3789 4.3828v21.824h-18c-0.27734 0-0.50391-0.22656-0.50391-0.50781v-32.402c-0.003906-2.0195-1.6406-3.6562-3.6602-3.6602h-4.0273c-0.41797 0-0.79297-0.25-0.95312-0.63672-0.16016-0.38281-0.074218-0.82812 0.22266-1.1211l36.074-36.074c0.82812-0.79297 2.1328-0.79297 2.9609 0l36.074 36.074c0.30469 0.28906 0.39453 0.73828 0.22266 1.1211z"  stroke="black" stroke-width="3"/></svg>